<svg xmlns="http://www.w3.org/2000/svg" xmlns:xlink="http://www.w3.org/1999/xlink" width="472" height="464" viewBox="0 0 472 464">
    <defs>
        <linearGradient id="a" x1="-32.862%" x2="115.067%" y1="64.206%" y2="38.933%">
            <stop offset="0%" stop-color="#EF822D"/>
            <stop offset="100%" stop-color="#C44748"/>
        </linearGradient>
        <path id="b" d="M125.039 429.621c0 6.134-5.93 6.781-12.885 3.179l-88.46-51.073C11.624 374.759.387 363.53.387 346.588V5.876c0-6.135 7.328-6.576 13.536-3.02L24.565 9v2.581c0 9.257 3.182 14.387 12.74 20.096L82.83 57.96c7.037 4.062 12.741 1.65 12.741-5.385v-2.58l6.813 3.933c12.07 6.968 22.656 23.314 22.656 34.98v340.713z"/>
        <path id="d" d="M125.039 429.621c0 6.134-5.93 6.781-12.885 3.179l-88.46-51.073C11.624 374.759.387 363.53.387 346.588V5.876c0-6.135 7.328-6.576 13.536-3.02L24.565 9v2.581c0 9.257 3.182 14.387 12.74 20.096L82.83 57.96c7.037 4.062 12.741 1.65 12.741-5.385v-2.58l6.813 3.933c12.07 6.968 22.656 23.314 22.656 34.98v340.713z"/>
        <linearGradient id="f" x1="11.026%" x2="88.976%" y1="73.633%" y2="26.369%">
            <stop offset=".54%" stop-color="#A33636"/>
            <stop offset="100%" stop-color="#DF3636"/>
        </linearGradient>
        <linearGradient id="g" x1="11.024%" x2="88.974%" y1="73.632%" y2="26.368%">
            <stop offset=".54%" stop-color="#485870"/>
            <stop offset="100%" stop-color="#486FBB"/>
        </linearGradient>
        <linearGradient id="h" x1="11.026%" x2="88.975%" y1="73.632%" y2="26.369%">
            <stop offset=".54%" stop-color="#199936"/>
            <stop offset="100%" stop-color="#19C753"/>
        </linearGradient>
        <linearGradient id="i" x1="11.026%" x2="88.975%" y1="73.632%" y2="26.369%">
            <stop offset=".54%" stop-color="#646464"/>
            <stop offset="100%" stop-color="#8C8C8C"/>
        </linearGradient>
        <linearGradient id="j" x1="11.024%" x2="88.973%" y1="73.631%" y2="26.367%">
            <stop offset=".54%" stop-color="#2F73D1"/>
            <stop offset="100%" stop-color="#2F9BD1"/>
        </linearGradient>
        <linearGradient id="k" x1="11.024%" x2="88.975%" y1="73.633%" y2="26.369%">
            <stop offset=".54%" stop-color="#FF8100"/>
            <stop offset="100%" stop-color="#FFD700"/>
        </linearGradient>
    </defs>
    <g fill="none" fill-rule="evenodd">
        <g stroke="#FFF" stroke-linecap="round">
            <path stroke-width="2" d="M271.624 180.983l54.8-31.638" opacity=".5"/>
            <path stroke-width="4" d="M197.079 403.243l75.778-43.75" opacity=".4"/>
            <path stroke-width="4" d="M365.214 184.13l75.779-43.75"/>
            <path stroke-width="3" d="M101.427 354.634l75.78-43.752"/>
            <path stroke-width="3" d="M416.653 245.891l35.282-20.368" opacity=".3"/>
        </g>
        <g stroke="#FFF" stroke-linecap="round">
            <path stroke-width="4" d="M197.079 253.034l75.778-43.751" opacity=".3"/>
            <path stroke-width="3" d="M252.784 327.14l56.399-32.561"/>
            <path stroke-width="4" d="M110.02 394.38l75.779-43.751" opacity=".2"/>
            <path stroke-width="2" d="M343.95 242.665l98.828-57.06" opacity=".5"/>
        </g>
        <g stroke="#FFF" stroke-linecap="round">
            <path stroke-width="3" d="M315.788 199.51l21.661-12.507" opacity=".3"/>
            <path stroke-width="2" d="M209.528 317.31l27.645-15.96"/>
            <path stroke-width="2" d="M390.028 134.71l21.66-12.506" opacity=".8"/>
            <path stroke-width="4" d="M273.75 298.868l15.216-8.784" opacity=".2"/>
            <path stroke-width="4" d="M447.678 204.087l21.661-12.507" opacity=".6"/>
        </g>
        <g fill-rule="nonzero">
            <path fill="#A84747" d="M148.92 151.752l18.012-9.858V51.26c-9.006-.541-15.248 4.929-18.012 9.86v90.633z"/>
            <path fill="#933535" d="M166.816 141.869l62.044 35.82c1.144.66 2.573-.164 2.573-1.485V89.532c0-.613-.327-1.18-.858-1.487l-63.758-36.811v90.635h-.001z"/>
            <path fill="#DBDAD9" d="M212.678 185.197l15.144-8.74V90.111l-15.144 8.74z"/>
            <path fill="#FFF" d="M212.677 98.851l15.145-8.74-62.345-36.277a1.716 1.716 0 0 0-1.72-.003l-11.72 6.764c-1.142.658-1.145 2.306-.005 2.968l60.645 35.288z"/>
            <path fill="#9B4242" d="M148.92 151.752l62.043 35.821c1.143.66 2.572-.165 2.572-1.486V99.414c0-.612-.326-1.18-.857-1.486l-63.758-36.81v90.634z"/>
            <path fill="#3783A0" d="M148.92 155.683l62.043 35.821c1.143.66 2.572-.165 2.572-1.486v-95.25c0-.613-.326-1.18-.857-1.486L148.92 56.47v99.213z"/>
            <path fill="#4195AF" d="M127.119 168.27l21.802-12.587V56.471c-10.901-.541-21.802 7.703-21.802 12.587v99.212z"/>
            <path fill="#FFF" d="M190.877 106.8l19.978-11.574-62.344-36.276a1.715 1.715 0 0 0-1.722 0l-16.56 9.592c-1.14.66-1.141 2.305-.003 2.967l60.65 35.291z"/>
            <path fill="#DBDAD9" d="M190.878 201.722l19.977-11.573V95.225l-19.977 11.573z"/>
            <path fill="#3783A0" d="M127.119 168.279l62.043 35.82c1.144.66 2.574-.165 2.574-1.486v-95.25c0-.612-.328-1.18-.858-1.486l-63.76-36.81v99.212z"/>
            <path fill="#933535" d="M129.347 169.724l55.185 31.847v-82.057L131.92 89.15c-1.144-.66-2.573.166-2.573 1.487v79.087z"/>
            <path fill="#FFF" d="M164.793 134.26l14.798-6.99 4.593-5.693-51.264-29.379-19.436 11.584z"/>
            <path fill="#994141" d="M167.279 211.477c7.219 0 15.225-4.508 17.253-9.906v-82.057c-2.6 5.397-11.034 8.828-17.253 9.906v82.057z"/>
            <path fill="#933535" d="M112.951 180.122l54.328 31.354v-82.058l-52.613-30.363c-1.143-.66-2.572.165-2.572 1.486v78.095c0 .614.327 1.18.857 1.486z"/>
            <path fill="#A67C52" d="M167.279 160.011c7.219 0 15.225-4.507 17.252-9.904v-13.438c-2.6 5.397-11.034 8.829-17.252 9.906v13.436z"/>
            <path fill="#D8D8D8" d="M183.205 122.79l.98-1.213-51.265-29.379-1.517.904zM226.012 91.157l1.811-1.046-62.345-36.277a1.716 1.716 0 0 0-1.72-.003l-.951.55 63.205 36.776z"/>
            <path fill="#A84747" d="M175.905 126.745c3.776-1.727 7.147-4.159 8.627-7.231v82.057c-1.214 3.233-4.578 6.137-8.627 7.953v-82.78z"/>
            <path fill="#BABABA" d="M226.012 177.502l1.81-1.045V90.111l-1.81 1.046z"/>
            <path fill="#C19165" d="M175.905 143.9c3.776-1.726 7.147-4.159 8.627-7.23v13.437c-1.214 3.231-4.578 6.135-8.627 7.953V143.9z"/>
            <path fill="#D8D8D8" d="M208.79 96.423l2.065-1.197-62.344-36.276a1.715 1.715 0 0 0-1.722 0l-1.204.696 63.204 36.777z"/>
            <path fill="#D35F5F" d="M182.827 121.976v82.482c.745-.917 1.328-1.886 1.705-2.888v-82.057c-.422.876-1.011 1.693-1.705 2.463z"/>
            <path fill="#D3AD88" d="M182.827 139.132v13.862c.745-.915 1.328-1.886 1.705-2.886V136.67c-.422.874-1.011 1.692-1.705 2.462z"/>
            <path fill="#BABABA" d="M208.79 96.423l2.065-1.197v94.923l-2.066 1.196z"/>
        </g>
        <g fill-rule="nonzero">
            <path fill="#8C8C8C" d="M204.449 348.413l87.948-50.777c2.008-1.159 2.005-4.055-.003-5.211l-65.475-37.68a7.075 7.075 0 0 0-7.064.006l-89.579 49.47c-.859 1.127-.85 5.559 1.105 6.684l65.185 37.515a7.894 7.894 0 0 0 7.883-.007zM216.742 253.434l-85.641 49.65c-1.996.883-5.11 0-5.643-2.918l-15.14-72.822c-.581-2.565.98-5.485 3.165-6.747l87.167-50.303c1.953-1.127 5.415-.203 4.647 2.632l15.391 73.683a7.888 7.888 0 0 1-3.946 6.825z"/>
            <path fill="#C1C1C1" d="M218.42 252.657l-86.637 49.998c-2.006 1.158-4.051-.123-4.51-2.61l-15.922-72.47c-.718-3.335 1.182-5.624 3.367-6.885l87.167-50.304c1.953-1.127 3.712.264 4.39 2.54l16.09 72.907c.592 2.835-1.507 5.417-3.946 6.824z"/>
            <path fill="#AFAFAF" d="M204.449 347.436l87.948-50.777c2.008-1.159 2.005-4.055-.003-5.211l-65.475-39.635a7.075 7.075 0 0 0-7.064.006l-88.478 51.083c-1.953 1.126-1.951 3.946.004 5.071l65.185 39.468a7.892 7.892 0 0 0 7.883-.005z"/>
            <path fill="#303030" d="M202.301 175.177l-86.722 50.487 15.957 71.518 86.254-49.56z"/>
            <g fill="#565656">
                <path d="M248.98 271.61l-86.275 49.81-5.23-3.123v-.471l86.273-49.34zM242.085 267.493l-86.275 49.81-4.955-2.959.002-.471 86.274-49.34zM235.467 263.54l-86.275 49.811-5.023-3v-.47l86.275-49.34zM255.115 275.272a.946.946 0 0 1-.012 1.632l-83.921 48.41a1.954 1.954 0 0 1-1.98-.015l-4.833-2.886.001-.47 86.273-49.34 4.472 2.67zM138.457 305.252l83.584-48.556a1.956 1.956 0 0 1 1.984.013l4.756 2.84-86.276 49.81-4.058-2.423a.966.966 0 0 1-.476-.81c-.004-.154 0-.502 0-.502s.304-.267.486-.372z"/>
            </g>
            <path fill="#8E8E8E" d="M229.47 323.343l25.28-14.596a.864.864 0 0 0-.001-1.498l-18.82-11.392a2.034 2.034 0 0 0-2.031 0l-25.433 14.684a.841.841 0 0 0 .001 1.458l18.737 11.344a2.265 2.265 0 0 0 2.266 0z"/>
            <g fill="#727272">
                <path d="M248.982 271.137l-86.275 49.811-5.232-3.122 86.275-49.812zM242.086 267.022l-86.275 49.81-4.954-2.959 86.275-49.811zM235.468 263.07l-86.275 49.81-5.023-3 86.275-49.81zM255.116 274.8a.946.946 0 0 1-.013 1.633l-83.92 48.41a1.955 1.955 0 0 1-1.978-.015l-4.834-2.887 86.275-49.81 4.47 2.67zM138.458 304.78l83.584-48.555a1.954 1.954 0 0 1 1.984.012l4.756 2.84-86.276 49.81-4.058-2.423a.978.978 0 0 1 .01-1.684z"/>
            </g>
            <path fill="#474747" d="M169.024 194.55l33.277-19.373 15.489 72.446-61.327 35.236z"/>
            <path fill="#757575" d="M208.465 311.154l25.433-14.685a2.034 2.034 0 0 1 2.03 0l18.82 11.392a.816.816 0 0 1 .355.444c.143-.375.04-.83-.354-1.055l-18.82-11.392a2.034 2.034 0 0 0-2.031 0l-25.433 14.684c-.385.223-.486.668-.342 1.035a.793.793 0 0 1 .342-.423z"/>
        </g>
        <g fill-rule="nonzero">
            <path fill="#495363" d="M391.121 250.545l67.381 38.72c1.306.751 1.308 2.634.003 3.388l-53.735 31.025-72.762-41.814 54.236-31.313a4.884 4.884 0 0 1 4.877-.006z"/>
            <path fill="#DBDAD9" d="M457.72 280.697l-54.647 31.33v10.243l54.646-31.331z"/>
            <path fill="#BABABA" d="M447.558 285.486v11.337l2.925-1.685V283.8z"/>
            <path fill="#D1D1D1" d="M334.088 270.727l69.133 39.875v10.354l-69.133-39.874z"/>
            <path fill="#495363" d="M391.74 239.6l66.73 38.346c1.306.75 1.308 2.633.004 3.387l-53.72 31.024-72.763-41.814 53.571-30.938a6.188 6.188 0 0 1 6.178-.006z"/>
            <path fill="#384049" d="M332.006 281.867c.886.516 71.95 41.324 72.763 41.813-1.081-2.106-1.202-9.496 0-11.332-.957-.55-71.45-41.02-72.763-41.813-1.587 1.161-1.556 10.444 0 11.332z"/>
            <path fill="#703636" d="M449.308 286.626l-72.762-41.813 2.927-1.686 72.76 41.813z"/>
            <path fill="#5B2F2F" d="M449.308 286.626v11.337l2.926-1.686V284.94z"/>
            <g transform="translate(351.767 251.123)">
                <path fill="#C3D6E5" d="M1.915 5.76l22.78 13.151 2.815-4.877L4.731.882A2.815 2.815 0 1 0 1.915 5.76z"/>
                <path fill="#7ABDE2" d="M.884 1.912c.116-.2.257-.374.41-.533-.261 1.242.228 2.531 1.33 3.167l22.773 13.147-.703 1.217L1.915 5.758a2.815 2.815 0 0 1-1.03-3.846z"/>
                <path fill="#C6C6C6" d="M61.98 37.55l-4.487-1.691 1.094-1.894s3.252 2.557 3.76 2.948c.509.39.271.879-.367.637z"/>
                <path fill="#777" d="M62.537 37.529c-.101.092-.293.12-.557.02l-4.486-1.691.527-.915 4.516 2.586z"/>
                <ellipse cx="26.101" cy="16.467" fill="#5085AA" rx="1.367" ry="2.815" transform="rotate(30.001 26.101 16.467)"/>
                <path fill="#C3D6E5" d="M59.355 36.562c-.524-.084-4.54-.649-6.819-1.964L24.861 18.62c-.78-.45.97-4.362 2.481-4.296l27.609 15.94c2.68 1.547 4.776 4.394 5.197 4.923-.588-.137-1.324.817-.793 1.376z"/>
                <path fill="#5085AA" d="M4.239 3.169l15.039 8.683c1.966 1.041 3.369-1.283 1.843-2.243L5.67.69c-.673-.387-1.539-.147-1.934.537-.395.685-.171 1.555.502 1.943z"/>
                <path fill="#7ABDE2" d="M56.109 34.545c.895.517 1.99.946 3.109 1.301-.082.241-.06.506.138.715-.524-.084-4.54-.649-6.819-1.964L24.862 18.618c-.346-.2-.192-1.078.214-1.991 10.094 5.83 28.762 16.608 31.033 17.918z"/>
                <path fill="#5085AA" d="M52.71 28.969l.707.408c-.577-.333-1.599.36-2.284 1.546-.685 1.187-.773 2.419-.196 2.75l-.709-.409c-.192-.593.001-1.58.556-2.543.556-.96 1.314-1.622 1.925-1.752z"/>
            </g>
        </g>
        <g fill-rule="nonzero">
            <path fill="#303030" d="M370.359 224.612l-72.823-42.01a4.681 4.681 0 0 1-1.98-4.067c.072-1.52.148-12.49.153-15.789l60.963-22.002a10.65 10.65 0 0 1 11.493.54l75.668 40.171c0 1.71-.164 3.972-.154 5.296a4.325 4.325 0 0 1-2.178 3.808l-58.83 33.961c-3.864 2.232-8.673 2.676-12.312.092z"/>
            <path fill="#3A3A3A" d="M376.422 145.656l67.403 35.784c0 1.71-.165 3.972-.155 5.296a4.322 4.322 0 0 1-2.178 3.807l-58.829 33.962c-1.933 1.116-4.101 1.783-6.242 1.851v-80.7h.001z"/>
            <path fill="#444" d="M370.514 218.377l-72.822-51.718c-2.804-1.99-2.605-6.213.372-7.932l58.764-33.926a10.65 10.65 0 0 1 11.493.54L442 177.668c2.587 1.837 2.403 5.737-.346 7.322l-58.829 33.966a11.41 11.41 0 0 1-12.312-.579z"/>
            <path fill="#4C6344" d="M344.162 159.293l-12.326-8.772 31.613-18.261 12.326 8.772z"/>
            <path fill="#606060" d="M382.062 156.794l-5.194-3.688 5.264-3.042 5.195 3.689z"/>
            <path fill="#303030" d="M376.868 154.133l5.194 3.687v-1.026l-5.194-3.688z"/>
            <path fill="#3A3A3A" d="M387.327 154.779l-5.265 3.041v-1.026l5.265-3.041z"/>
            <path fill="#606060" d="M373.94 161.496l-5.194-3.688 5.265-3.041 5.193 3.688z"/>
            <path fill="#303030" d="M368.746 158.835l5.193 3.688v-1.027l-5.193-3.688z"/>
            <path fill="#3A3A3A" d="M379.204 159.481l-5.265 3.042v-1.027l5.265-3.04z"/>
            <path fill="#606060" d="M365.41 166.415l-5.195-3.688 5.266-3.042 5.194 3.688z"/>
            <path fill="#303030" d="M360.215 163.752l5.195 3.69v-1.027l-5.195-3.688z"/>
            <path fill="#3A3A3A" d="M370.675 164.4l-5.265 3.041v-1.026l5.265-3.042z"/>
            <path fill="#606060" d="M390.423 162.78l-5.193-3.688 5.265-3.042 5.193 3.688z"/>
            <path fill="#303030" d="M385.23 160.119l5.193 3.688v-1.027l-5.193-3.688z"/>
            <path fill="#3A3A3A" d="M395.688 160.764l-5.265 3.043v-1.027l5.265-3.042z"/>
            <path fill="#606060" d="M382.3 167.482l-5.192-3.687 5.264-3.042 5.194 3.688z"/>
            <path fill="#303030" d="M377.108 164.82l5.193 3.69v-1.028l-5.193-3.687z"/>
            <path fill="#3A3A3A" d="M387.566 165.467l-5.265 3.042v-1.027l5.265-3.04z"/>
            <path fill="#606060" d="M373.772 172.401l-5.194-3.689 5.264-3.041 5.194 3.688z"/>
            <path fill="#303030" d="M368.578 169.738l5.194 3.69V172.4l-5.194-3.689z"/>
            <path fill="#3A3A3A" d="M379.036 170.386l-5.264 3.041v-1.026l5.264-3.042z"/>
            <path fill="#606060" d="M399.234 169.111l-5.192-3.689 5.264-3.04 5.194 3.688z"/>
            <path fill="#303030" d="M394.042 166.45l5.192 3.688v-1.027l-5.192-3.689z"/>
            <path fill="#3A3A3A" d="M404.5 167.096l-5.266 3.042v-1.027l5.266-3.04z"/>
            <path fill="#606060" d="M391.112 173.814l-5.193-3.689 5.265-3.041 5.193 3.688z"/>
            <path fill="#303030" d="M385.919 171.152l5.193 3.688v-1.026l-5.193-3.689z"/>
            <path fill="#3A3A3A" d="M396.377 171.798l-5.265 3.042v-1.026l5.265-3.042z"/>
            <path fill="#606060" d="M382.583 178.732l-5.194-3.688 5.264-3.042 5.195 3.688z"/>
            <path fill="#303030" d="M377.39 176.07l5.193 3.689v-1.027l-5.194-3.688z"/>
            <path fill="#3A3A3A" d="M387.848 176.717l-5.265 3.042v-1.027l5.265-3.042z"/>
            <path fill="#606060" d="M408.702 175.75l-5.194-3.688 5.265-3.04 5.193 3.687z"/>
            <path fill="#303030" d="M403.508 173.089l5.194 3.689v-1.027l-5.194-3.689z"/>
            <path fill="#3A3A3A" d="M413.966 173.736l-5.264 3.042v-1.027l5.264-3.042z"/>
            <path fill="#606060" d="M400.579 180.454l-5.194-3.69 5.265-3.04 5.194 3.687z"/>
            <path fill="#303030" d="M395.385 177.79l5.194 3.69v-1.026l-5.194-3.69z"/>
            <path fill="#3A3A3A" d="M405.844 178.438l-5.265 3.042v-1.026l5.265-3.043z"/>
            <path fill="#606060" d="M392.05 185.372l-5.194-3.688 5.266-3.043 5.192 3.689z"/>
            <path fill="#303030" d="M386.856 182.71l5.193 3.688v-1.026l-5.193-3.688z"/>
            <path fill="#3A3A3A" d="M397.314 183.356l-5.265 3.042v-1.026l5.265-3.042zM331.836 150.521l31.61-18.261v.488l-31.232 18.043z"/>
            <path fill="#303030" d="M363.447 132.26l12.328 8.771-.377.22-11.951-8.503z"/>
            <g fill="#1E1E1E">
                <path d="M411.784 188.248c.172.1.386.1.558 0l11.477-6.626a.208.208 0 0 0 0-.362.555.555 0 0 0-.56 0l-11.475 6.626a.208.208 0 0 0 0 .362zM412.962 189.07c.173.1.386.1.559 0l11.476-6.625a.21.21 0 0 0 0-.363.56.56 0 0 0-.559 0l-11.476 6.625a.21.21 0 0 0 0 .364zM414.14 189.893c.173.1.386.1.558 0l11.478-6.626a.21.21 0 0 0 0-.364.56.56 0 0 0-.56 0l-11.476 6.626a.21.21 0 0 0 0 .364zM415.318 190.714c.174.1.387.1.559 0l11.476-6.625a.21.21 0 0 0 0-.364.558.558 0 0 0-.558 0l-11.477 6.626a.21.21 0 0 0 0 .363zM416.496 191.536c.174.1.387.1.56 0l11.477-6.626a.21.21 0 0 0 0-.362.56.56 0 0 0-.56 0l-11.477 6.626a.21.21 0 0 0 0 .362z"/>
            </g>
            <path fill="#1E1E1E" d="M372.325 212.891l-65.863-46.777c-1.87-1.329-1.735-4.15.255-5.295l12.781-7.347a8.112 8.112 0 0 1 8.74.42l66.252 47.053c1.606 1.14 1.488 3.56-.219 4.54l-13.579 7.807a7.767 7.767 0 0 1-8.367-.4z"/>
            <path fill="#282828" d="M323.668 174.947v3.386l2.424 1.724 13.824-8.016v-6.514z"/>
            <path fill="#303030" d="M375.578 208.791c-13.151-23.312-54.488-51.032-67.856-49.264v7.481l15.946 11.324s.03-1.883.03-3.38c6.288 0 27.84 14.693 33.787 24.355 0 1.381.023 3.068.023 3.068s12.82 9.107 13.647 9.683c.829.574 2.354 1.904 4.422 2.184v-5.45z"/>
            <path fill="#3A3A3A" d="M375.536 208.4v5.818c2.212.357 3.815-.074 5.858-1.33l10.434-5.997v-7.802l-16.292 9.312z"/>
            <path fill="#4F4F4F" d="M372.991 207.328c-15.42-19.712-41.643-40.455-63.93-46.159-1.608-.411-1.885-2.585-.447-3.413a5565.32 5565.32 0 0 1 10.891-6.266 8.681 8.681 0 0 1 6.353-.913c20.499 4.944 49.77 24.963 65.246 46.314 1.34 1.85.752 4.458-1.229 5.596-3.102 1.784-7.476 4.298-10.602 6.093-2.115 1.215-4.78.669-6.282-1.252z"/>
            <path fill="#3A3A3A" d="M297.971 158.7l58.763-33.927a10.633 10.633 0 0 1 9.143-.697 10.695 10.695 0 0 0-7.695 1.159l-59.12 34.133c-2.994 1.73-3.196 5.978-.376 7.98l-1.087-.716c-2.803-1.991-2.605-6.214.372-7.932z"/>
            <path fill="#444" d="M308.615 157.745c.072-.04.152-.087.225-.13 24.606 7.63 52.497 29.614 70.064 51.125a4.873 4.873 0 0 1-5.913-1.423c-15.42-19.712-41.642-40.454-63.928-46.159-1.609-.411-1.886-2.584-.448-3.413z"/>
        </g>
        <g fill-rule="nonzero">
            <path fill="#5B5B5B" d="M124.465 461.435l-94.478-59.629c-15.21-8.781-24.428-28.76-24.428-43.97L.325 19.718C3.28 4.48 26.145-5.258 41.356 3.525l88.459 51.071c15.21 8.782 27.541 28.232 27.541 43.442v339.736c0 17.774-17.035 28.005-32.891 23.661z"/>
            <path fill="url(#a)" d="M5.233 18.27l8.58-6.013 109.326 61.885 14.332 22.8v349.812l-7.817 12.377L18.26 393.99 5.233 374.446z"/>
            <path fill="#1E1E1E" d="M116.022 63.064l-88.46-51.072c-5.007-2.891-9.703-4.266-13.75-4.266C5.569 7.726.02 13.431.02 23.632v340.713c0 19.466 12.33 34.662 27.542 43.443l88.459 51.072c5.008 2.892 9.704 4.266 13.75 4.266 8.244 0 13.792-5.705 13.792-15.907V106.507c0-17.871-12.331-34.661-27.542-43.443zm17.77 384.155c0 6.136-5.929 6.782-12.885 3.179L32.45 399.326c-12.07-6.969-23.308-18.197-23.308-35.14V23.475c0-6.135 7.329-6.576 13.536-3.02l10.642 6.143v2.58c0 9.257 3.182 14.387 12.741 20.096l45.524 26.283c7.036 4.063 12.74 1.651 12.74-5.385v-2.58l6.813 3.933c12.07 6.968 22.657 23.314 22.657 34.98V447.22h-.001z"/>
            <path fill="#3F3F3F" d="M76.016 59.593l-16.937-9.779c-1.034-.597-1.873-1.919-1.873-2.954 0-1.035.839-1.388 1.873-.791l16.937 9.778c1.035.597 1.873 1.92 1.873 2.954 0 1.036-.838 1.39-1.873.792z"/>
            <path fill="#25477C" d="M86.05 63.621c0 1.192-.967 1.6-2.158.913-1.193-.688-2.159-2.213-2.159-3.404 0-1.192.966-1.6 2.159-.912 1.192.688 2.157 2.212 2.157 3.403z"/>
            <path fill="#6D6D6D" d="M157.355 414.183c-2.296 3.746-10.5 4.54-13.791 1.955v-5.375c5.308 2.28 10.763.978 13.791-1.954v5.374zM157.355 124.3c-2.296 3.746-10.5 4.54-13.791 1.955v-5.374c5.308 2.28 10.763.977 13.791-1.954v5.374z"/>
            <path fill="#898989" d="M150.436 228.67c-1.467-.224-2.687-1.426-2.687-2.91v-56.397c0-1.484 1.086-2.885 2.687-2.885 2.343 0 3.229 1.16 3.69 1.731.563.696-2.008 60.562-2.008 60.562l-1.682-.1z"/>
            <path fill="#FFF" d="M87.342 137.298a7.882 7.882 0 0 0-1.005-.484 41.192 41.192 0 0 0-1.003-5.358c.428-.395.695-1.045.695-1.932 0-2.072-1.396-4.557-3.116-5.55-.043-.026-.084-.036-.127-.058a52.938 52.938 0 0 0-3.28-6.516c.489-.87.771-2.009.771-3.391 0-4.663-3.14-10.257-7.014-12.493-3.873-2.237-7.014-.269-7.014 4.394 0 1.541.348 3.183.947 4.772-1.062.611-2.06 1.472-2.948 2.554-.007-.004-.012-.01-.02-.014-1.72-.994-3.115-.12-3.115 1.952 0 .837.235 1.739.62 2.585a20.388 20.388 0 0 0-1.015 4.198c-.163-.108-.325-.218-.492-.314-3.873-2.237-7.013-.269-7.013 4.394s3.14 10.256 7.013 12.493c3.156 1.821 5.823.853 6.705-2.09a38.497 38.497 0 0 0 3.983 3.366c.474 1.618 1.58 3.2 2.87 3.945 1.286.742 2.39.44 2.865-.625 1.414.597 2.757.991 3.977 1.17.868 3.979 3.544 8.06 6.716 9.89 3.873 2.236 7.014.268 7.014-4.395 0-4.664-3.14-10.257-7.014-12.493zM73.263 105.01c2.27 1.312 4.111 4.589 4.111 7.323 0 2.733-1.84 3.886-4.11 2.576-2.27-1.312-4.111-4.59-4.111-7.323 0-2.733 1.84-3.887 4.11-2.576zm-13.037 30.024c-2.27-1.31-4.11-4.589-4.11-7.323 0-2.733 1.84-3.886 4.11-2.576 2.27 1.312 4.111 4.59 4.111 7.323 0 2.733-1.84 3.886-4.11 2.576zm20.162 5.651c-1.154-.079-2.492-.44-3.93-1.044-.543-1.416-1.53-2.734-2.673-3.394-1.134-.654-2.117-.485-2.663.29a34.837 34.837 0 0 1-3.93-3.391c-.27-3.016-1.724-6.277-3.76-8.714.163-1.324.452-2.558.84-3.688 1.701.953 3.073.081 3.073-1.973 0-.815-.222-1.691-.588-2.518.702-.83 1.476-1.5 2.289-1.994 1.175 1.746 2.631 3.228 4.217 4.144 1.718.992 3.29 1.153 4.509.623a46.262 46.262 0 0 1 2.552 5.118c-.332.405-.528 1.01-.528 1.783 0 2.009 1.316 4.395 2.965 5.443.427 1.723.733 3.432.89 5.07-1.76.3-3 1.807-3.263 4.245zm6.954 10.003c-2.271-1.31-4.111-4.588-4.111-7.321 0-2.733 1.84-3.886 4.11-2.576 2.272 1.31 4.112 4.588 4.112 7.322s-1.84 3.887-4.111 2.575z"/>
            <path fill="#6D6D6D" d="M152.038 228.773a2.687 2.687 0 0 1-2.687-2.687V169.9a2.687 2.687 0 1 1 5.374 0v56.185a2.687 2.687 0 0 1-2.687 2.687z"/>
            <path fill="#000" fill-opacity=".31" d="M24.465 149.752l93.441 53.949a1.199 1.199 0 0 0 1.798-1.038v-.14a2.932 2.932 0 0 0-1.465-2.538l-93.441-53.949A1.199 1.199 0 0 0 23 147.074v.14a2.93 2.93 0 0 0 1.465 2.538z"/>
            <path fill="#FFD902" d="M89.33 183.263l-64.632-37.315a1.199 1.199 0 0 0-1.798 1.038v.14c0 1.048.559 2.015 1.466 2.54l64.963 37.505v-3.908h.001z"/>
        </g>
        <g fill-rule="nonzero" transform="translate(233.534 105.53)">
            <path fill="#A56C42" d="M77.462 106.614l-29.33 16.929-29.677-17.135 29.33-16.928z"/>
            <path fill="#8C5835" d="M79.429 108.527l-31.285 18.057v20.708l31.285-18.056z"/>
            <path fill="#704C33" d="M48.144 126.584l-31.656-18.276v20.707l31.656 18.277z"/>
            <path fill="#A56C42" d="M83.948 133.065l-35.777 20.65-.027-6.423 31.285-18.056z"/>
            <path fill="#8C5835" d="M48.17 153.714l-36.201-20.9 4.52-3.799 31.655 18.277z"/>
            <path fill="#BA7C52" d="M77.462 106.614l-29.33 16.929.012 3.041 31.285-18.057z"/>
            <path fill="#8C5835" d="M18.455 106.408l29.683 17.135.01 3.041-31.66-18.276z"/>
            <path fill="#D17C2F" d="M55.05 137.261v-7.94c.9-.52 1.63-1.853 1.63-2.978l15.38-8.88.713.478s-.222.704-.132.746c.283.134.649.102 1.048-.129l.716.476-.716 7.464c-.9.521-1.63 1.854-1.63 2.98l-14.664 9.354-.716-.476c0-.422-.257-.786-.472-1.016-.159-.17-.443.398-.443.398l-.714-.477z"/>
            <path fill="#F4C287" d="M85.324.882L55.764 17.95v5.64L80.342 9.4c-.316 4.535-1.111 10.603-2.995 17.247-4.006 14.117-11.254 25.59-21.583 34.27v6.245c29.574-22.2 33.224-64.144 33.224-64.144L85.324.882z"/>
            <path fill="#F4A640" d="M88.988 3.02L55.7 22.24v5.64l28.308-16.342c-.316 4.535-1.111 10.603-2.995 17.247-4.47 15.76-12.977 28.234-25.312 37.19v5.95C92.613 47.655 88.988 3.02 88.988 3.02z"/>
            <path fill="#FFBA5F" d="M58.54 127.514l15.543-5.112.323-3.367-.716-.476c-.4.23-.765.263-1.048.13-.09-.043.132-.747.132-.747l-.714-.477-15.379 8.879v.022l1.86 1.148z"/>
            <path fill="#F4A640" d="M55.764 137.738v-7.94c.9-.52 1.632-1.853 1.632-2.98l15.377-8.877c0 1.123.73 1.614 1.633 1.093v7.941c-.902.52-1.633 1.854-1.633 2.979l-15.377 8.878c0-1.124-.731-1.613-1.632-1.094zM47.959 23.672s-25.165-2.198-35.53 0c0 47.881 26.408 47.881 26.408 82.503 0 2.854 3.544 5.168 9.122 5.168 5.577 0 9.122-2.314 9.122-5.168 0-34.622 26.407-34.622 26.407-82.503-10.363-2.197-35.53 0-35.53 0z"/>
            <path fill="#F4C287" d="M68.164 26.878c0 47.881-16.32 51.132-13.986 83.189 1.855-.947 2.904-2.34 2.904-3.892 0-34.622 22.439-34.622 22.439-82.504-10.367-2.196-.993 1.01-11.357 3.207z"/>
            <g fill="#E2963B">
                <path d="M46.606 106.175c0-34.622-11.758-33.327-10.575-81.251 1.873-.397-3.886-1.9-1.281-2.05-7.73-.3-16.985-.334-22.322.798 0 47.881 26.408 47.881 26.408 82.503 0 2.854 3.544 5.168 9.122 5.168 1.44 0 2.741-.156 3.885-.435-3.283-.798-5.237-2.616-5.237-4.733zM63.441 23.672s5.927-.517 13.21-.798c-6.687-.382-14.994-.077-20.95.262 4.558.258 7.74.536 7.74.536z"/>
            </g>
            <path fill="#C1772D" d="M43.013 110.602c1.609-44.101-22.656-40.832-21.029-81.467 1.874-.397-1.404-3.692-6.74-2.562 0 47.881 26.666 38.133 24.49 81.954.613.798 2.2 1.775 3.28 2.075z"/>
            <ellipse cx="47.959" cy="24.081" fill="#F4A640" rx="35.529" ry="18.18"/>
            <path fill="#E2963B" d="M57.47 6.481c.837 15.977.102 26.882-1.264 35.2 15.643-1.904 27.282-9.097 27.282-17.684 0-10.04-15.073-16.18-26.018-17.516z"/>
            <path fill="#C1772D" d="M71.713 37.513c7.228-3.326 11.776-8.148 11.776-13.516 0-5.02-3.768-9.065-8.906-12.022.493 10.72-.177 17.908-2.87 25.538zM30.76 73.685c-1.263.197-2.495.313-3.672.313-7.3 0-13.182-3.922-17.485-11.659-2.014-3.621-3.239-7.312-3.926-9.837l21.355-13.719c-2.056-.683-2.37-1.004-4.1-1.885L.114 50.07s4.576 28.812 26.972 28.812c3.541 0 4.01-1.597 8.495-3.267a16.917 16.917 0 0 1-4.823-1.93z"/>
            <path fill="#F4C287" d="M18.89 75.075l12.452 2.601c1.035-.581 2.235-1.312 4.241-2.059a16.987 16.987 0 0 1-4.825-1.932c-1.262.197-2.494.313-3.671.313-3.257 0-6.228-.785-8.907-2.337l.71 3.414zM3.78 52.21l23.253-13.426c-2.056-.683-2.37-1.004-4.1-1.885L.115 50.071l3.665 2.138z"/>
            <path fill="#F4A640" d="M35.583 75.617c-1.68.333-3.296.52-4.832.52-7.299 0-13.181-3.923-17.484-11.66-2.013-3.621-3.24-7.312-3.926-9.837 0 0 17.875-10.324 17.997-10.385-.265-1.993-.305-5.47-.305-5.47L3.781 52.208s4.575 28.812 26.97 28.812c1.527 0 3.138-.138 4.832-.424v-4.98z"/>
        </g>
        <g fill-rule="nonzero">
            <path fill="#BCBCBC" d="M267.958 301.464l20.24 12.244v57.003l1.703 6.43-1.703-.846-18.567-11.231a3.474 3.474 0 0 1-1.673-2.97v-60.63z"/>
            <path fill="#DBDAD9" d="M348.47 278.91l-60.273 34.798v60.991c0 2.004 2.17 3.255 3.904 2.255l56.368-32.546V278.91h.001z"/>
            <path fill="#FFF" d="M348.47 278.91c-2.079 1.262-60.273 34.798-60.273 34.798s.46 9.123 0 18.646c-.672 13.96-1.413 43.453 11.352 46.055 3.074-1.79 53.519-32.5 56.188-33.742-8.727-12.349-8.478-42.954-7.267-65.758z"/>
            <path fill="#A53838" d="M269.146 297.217a5.205 5.205 0 0 0-2.603 4.507v15.812l33.006-5.16-30.403-15.16z"/>
            <path fill="#B73B3B" d="M269.266 297.15l20.24 12.243 55.656-27.92 3.74-4.925-1.278-.713-17.609-10.651a5.205 5.205 0 0 0-5.296-.054l-55.453 32.02z"/>
            <path fill="#DBDAD9" d="M348.47 288.513l-60.273 34.798v8.674s60.249-34.806 60.478-34.916c-.278-1.302-.205-8.556-.205-8.556z"/>
            <path fill="#A0A0A0" d="M267.958 303.668l20.239 12.245v16.072l-20.24-12.243z"/>
            <path fill="#CC4646" d="M346.541 276.464l-57.155 32.998a5.204 5.204 0 0 0-2.602 4.508v15.812l63.1-36.432v-14.957c0-1.716-1.857-2.787-3.343-1.93z"/>
            <path fill="#933535" d="M266.543 301.464l20.241 12.244v16.073l-20.241-12.244z"/>
            <path fill="#228DB2" d="M310.28 356.552l4.045-6.9c1.833 1.382 3.74 1.637 6.45.073 2.214-1.278 3.777-3.673 3.777-6.114 0-2.577-1.945-2.9-5.228-1.004l-2.441 1.41-.917-3.902 6.372-11.273-10.494 6.058v-5.966l18.05-10.42v5.243l-6.755 11.54c3.625-1.37 7.175-1.16 7.175 4.807 0 5.967-3.663 12.466-9.617 15.903-4.807 2.777-8.126 2.433-10.417.545z"/>
        </g>
        <g transform="translate(8.794 17.588)">
            <mask id="c" fill="#fff">
                <use xlink:href="#b"/>
            </mask>
            <g fill-rule="nonzero" mask="url(#c)" opacity=".3">
                <path fill="#A84747" d="M140.155 134.164l18.012-9.858V33.67c-9.006-.541-15.249 4.929-18.012 9.86v90.633z"/>
                <path fill="#933535" d="M158.05 124.28l62.044 35.821c1.144.66 2.574-.164 2.574-1.485V71.943c0-.612-.328-1.18-.858-1.486l-63.76-36.811v90.634z"/>
                <path fill="#DBDAD9" d="M203.914 167.608l15.144-8.74V72.524l-15.144 8.74z"/>
                <path fill="#FFF" d="M203.913 81.263l15.145-8.74-62.345-36.277a1.716 1.716 0 0 0-1.72-.003l-11.72 6.763c-1.141.66-1.144 2.306-.005 2.969l60.645 35.288z"/>
                <path fill="#9B4242" d="M140.155 134.164l62.043 35.82c1.144.661 2.573-.164 2.573-1.486V81.826c0-.613-.327-1.18-.857-1.486l-63.76-36.81v90.634z"/>
                <path fill="#3783A0" d="M140.155 38.883v99.212l62.043 35.82c1.144.661 2.573-.165 2.573-1.486V77.18c0-.612-.327-1.179-.857-1.486"/>
                <path fill="#4195AF" d="M118.354 150.681l21.8-12.586V38.883c-10.9-.541-21.8 7.703-21.8 12.586v99.212z"/>
                <path fill="#FFF" d="M182.112 89.212l19.978-11.574-62.344-36.276a1.715 1.715 0 0 0-1.722-.001l-16.56 9.592a1.715 1.715 0 0 0-.003 2.968l60.65 35.291z"/>
                <path fill="#DBDAD9" d="M182.112 184.133l19.978-11.573V77.637L182.112 89.21z"/>
                <path fill="#3783A0" d="M118.354 150.69l62.043 35.82c1.143.661 2.573-.164 2.573-1.485v-95.25c0-.613-.327-1.18-.858-1.486l-63.758-36.81v99.211z"/>
                <path fill="#933535" d="M120.58 152.135l55.187 31.848v-82.057l-52.612-30.364c-1.144-.66-2.573.165-2.573 1.486v79.087h-.001z"/>
                <path fill="#FFF" d="M156.028 116.671l14.798-6.989 4.593-5.694-51.264-29.378-19.437 11.584z"/>
                <path fill="#994141" d="M158.514 193.888c7.22 0 15.226-4.507 17.253-9.905v-82.057c-2.6 5.396-11.034 8.828-17.253 9.906v82.056z"/>
                <path fill="#933535" d="M104.187 162.534l54.327 31.353V111.83l-52.613-30.364c-1.144-.66-2.572.165-2.572 1.487v78.095c0 .613.326 1.18.858 1.486z"/>
                <path fill="#A67C52" d="M158.514 142.423c7.22 0 15.226-4.508 17.253-9.904V119.08c-2.6 5.397-11.034 8.828-17.253 9.905v13.437z"/>
                <path fill="#D8D8D8" d="M174.44 105.202l.98-1.214-51.265-29.378-1.517.904zM217.247 73.568l1.811-1.045-62.346-36.277a1.715 1.715 0 0 0-1.72-.003l-.95.549 63.205 36.776z"/>
                <path fill="#A84747" d="M167.14 109.156c3.776-1.726 7.147-4.158 8.627-7.23v82.057c-1.214 3.232-4.578 6.136-8.627 7.953v-82.78z"/>
                <path fill="#BABABA" d="M217.247 159.913l1.811-1.044V72.523l-1.811 1.045z"/>
                <path fill="#C19165" d="M167.14 126.312c3.776-1.727 7.147-4.159 8.627-7.231v13.438c-1.214 3.23-4.578 6.135-8.627 7.952v-14.16z"/>
                <path fill="#D8D8D8" d="M200.025 78.835l2.065-1.197-62.344-36.276a1.715 1.715 0 0 0-1.722-.001l-1.203.697 63.204 36.777z"/>
                <path fill="#D35F5F" d="M174.062 104.388v82.481c.746-.916 1.33-1.885 1.705-2.887v-82.057c-.422.876-1.01 1.693-1.705 2.463z"/>
                <path fill="#D3AD88" d="M174.062 121.543v13.863c.746-.916 1.33-1.886 1.705-2.887v-13.437c-.422.874-1.01 1.691-1.705 2.461z"/>
                <path fill="#BABABA" d="M200.025 78.835l2.065-1.197v94.922l-2.065 1.196z"/>
            </g>
        </g>
        <g transform="translate(8.794 17.588)">
            <mask id="e" fill="#fff">
                <use xlink:href="#d"/>
            </mask>
            <g fill-rule="nonzero" mask="url(#e)" opacity=".3">
                <path fill="#8C8C8C" d="M195.685 330.824l87.948-50.776c2.007-1.16 2.004-4.055-.004-5.211l-65.475-37.68a7.075 7.075 0 0 0-7.063.005l-89.58 49.472c-.858 1.125-.849 5.557 1.105 6.683l65.185 37.514a7.896 7.896 0 0 0 7.884-.007zM207.977 235.845l-85.641 49.651c-1.995.883-5.11 0-5.643-2.919l-15.14-72.821c-.581-2.565.98-5.486 3.166-6.747l87.167-50.303c1.953-1.128 5.415-.203 4.648 2.631l15.391 73.684a7.898 7.898 0 0 1-3.948 6.824z"/>
                <path fill="#C1C1C1" d="M209.654 235.068l-86.636 49.998c-2.007 1.16-4.051-.122-4.512-2.609l-15.92-72.47c-.72-3.336 1.181-5.624 3.366-6.885l87.167-50.304c1.953-1.128 3.712.264 4.39 2.54l16.09 72.907c.592 2.835-1.506 5.416-3.945 6.823z"/>
                <path fill="#AFAFAF" d="M195.685 329.847l87.948-50.776c2.007-1.16 2.004-4.056-.004-5.211l-65.475-39.635a7.075 7.075 0 0 0-7.063.006l-88.479 51.082c-1.952 1.127-1.95 3.947.004 5.072l65.185 39.468a7.893 7.893 0 0 0 7.884-.006z"/>
                <path fill="#303030" d="M193.536 157.589l-86.722 50.487 15.957 71.517 86.254-49.559z"/>
                <g fill="#565656">
                    <path d="M240.215 254.02l-86.275 49.811-5.231-3.123.002-.47 86.272-49.34zM233.32 249.904l-86.275 49.81-4.955-2.958.001-.471 86.274-49.34zM226.701 245.952l-86.275 49.81-5.023-2.999.002-.47 86.274-49.34zM246.35 257.684a.946.946 0 0 1-.013 1.632l-83.92 48.41a1.954 1.954 0 0 1-1.979-.016l-4.834-2.885.001-.471 86.273-49.34 4.471 2.67zM129.692 287.663l83.584-48.555a1.956 1.956 0 0 1 1.984.013l4.756 2.84-86.275 49.81-4.06-2.423a.965.965 0 0 1-.474-.811c-.004-.153 0-.501 0-.501s.303-.267.485-.373z"/>
                </g>
                <path fill="#8E8E8E" d="M220.705 305.755l25.28-14.596a.864.864 0 0 0-.002-1.498l-18.82-11.393a2.034 2.034 0 0 0-2.03.001L199.7 292.953a.841.841 0 0 0 .001 1.458l18.738 11.344a2.265 2.265 0 0 0 2.266 0z"/>
                <g fill="#727272">
                    <path d="M240.216 253.549L153.94 303.36l-5.23-3.123 86.273-49.811zM233.321 249.433l-86.275 49.81-4.955-2.958 86.275-49.812zM226.703 245.48l-86.276 49.81-5.022-2.998 86.275-49.811zM246.351 257.212a.947.947 0 0 1-.013 1.633l-83.92 48.409a1.956 1.956 0 0 1-1.979-.015l-4.834-2.886 86.274-49.81 4.472 2.67zM129.693 287.191l83.584-48.554a1.954 1.954 0 0 1 1.984.012l4.755 2.84-86.275 49.81-4.058-2.423a.977.977 0 0 1 .01-1.685z"/>
                </g>
                <path fill="#474747" d="M160.26 176.962l33.276-19.373 15.489 72.445-61.327 35.237z"/>
                <path fill="#757575" d="M199.7 293.565l25.433-14.684a2.034 2.034 0 0 1 2.03-.001l18.82 11.392c.185.106.29.27.356.445.142-.375.038-.83-.356-1.055l-18.82-11.393a2.034 2.034 0 0 0-2.03.001L199.7 292.954c-.385.222-.485.668-.343 1.034a.8.8 0 0 1 .343-.423z"/>
            </g>
        </g>
        <g fill-rule="nonzero">
            <path fill="url(#f)" d="M39.61 231.419l-27.359-15.796a13.68 13.68 0 0 1-6.84-11.847v-35.293c0-3.761 4.072-6.111 7.329-4.231l27.36 15.796a13.68 13.68 0 0 1 6.84 11.848v35.292c0 3.76-4.072 6.11-7.33 4.23z" transform="translate(17.588 26.383)"/>
            <path fill="url(#g)" d="M94.788 263.407l-27.36-15.795a13.68 13.68 0 0 1-6.84-11.848v-35.292c0-3.76 4.072-6.11 7.328-4.23l27.36 15.795a13.682 13.682 0 0 1 6.84 11.847v35.292c0 3.762-4.072 6.112-7.328 4.231z" transform="translate(17.588 26.383)"/>
            <path fill="url(#h)" d="M39.61 298.582l-27.359-15.796a13.677 13.677 0 0 1-6.84-11.847v-35.292c0-3.761 4.072-6.112 7.329-4.231l27.36 15.796a13.68 13.68 0 0 1 6.84 11.847v35.292c0 3.762-4.072 6.112-7.33 4.23z" transform="translate(17.588 26.383)"/>
            <path fill="url(#i)" d="M94.788 330.572l-27.36-15.796a13.68 13.68 0 0 1-6.84-11.847v-35.293c0-3.762 4.072-6.112 7.328-4.23l27.36 15.795a13.68 13.68 0 0 1 6.84 11.847v35.292c0 3.761-4.072 6.112-7.328 4.232z" transform="translate(17.588 26.383)"/>
            <path fill="url(#j)" d="M39.61 365.747l-27.359-15.796a13.68 13.68 0 0 1-6.84-11.847v-35.292c0-3.762 4.072-6.112 7.329-4.231l27.36 15.796a13.677 13.677 0 0 1 6.84 11.847v35.292c0 3.76-4.072 6.11-7.33 4.231z" transform="translate(17.588 26.383)"/>
            <path fill="url(#k)" d="M94.788 397.735l-27.36-15.795a13.68 13.68 0 0 1-6.84-11.848V334.8c0-3.76 4.072-6.11 7.328-4.23l27.36 15.796a13.682 13.682 0 0 1 6.84 11.846v35.292c0 3.761-4.072 6.112-7.328 4.231z" transform="translate(17.588 26.383)"/>
            <path fill="#FFF" d="M54.965 351.947l-2.888-1.668v-2.222c0-.577-.35-1.245-.783-1.495-.431-.25-.782.016-.782.591v2.222l-3.349-1.934v-2.222c0-.576-.35-1.245-.783-1.495-.431-.25-.782.016-.782.592v2.222l-3.349-1.934v-2.222c0-.577-.35-1.246-.783-1.496-.432-.25-.783.015-.783.592v2.222l-3.349-1.934v-2.22c0-.578-.35-1.247-.783-1.497-.433-.25-.783.016-.783.591v2.222l-2.888-1.667c-.905-.522-1.64.033-1.64 1.241v25.7c0 1.209.734 2.613 1.64 3.135l22.084 12.751c.905.523 1.64-.032 1.64-1.24V355.08c.002-1.208-.733-2.61-1.64-3.133zm-10.789 16.395c-1.653-.955-2.795-2.489-3.582-4.185l1.391-.964c.63 1.308 1.285 2.213 2.217 2.75.762.44 1.3.172 1.3-.773 0-.997-.67-1.942-1.798-2.594l-.84-.484-.314-1.896 2.192-1.675-3.608-2.083v-2.31l6.206 3.584v2.03l-2.322 1.615c1.246.998 2.467 2.578 2.467 4.888-.002 2.308-1.262 3.279-3.309 2.097zM106.16 395.328c2.192-1.537 3.157-4.894 3.14-7.538-.012-1.857-.947-3.741-2.225-4.48l-2.402-1.386a41.873 41.873 0 0 0-.101-1.393c-.082-.883-.625-1.82-1.258-2.185l-5.53-3.193-5.53-3.193c-.632-.366-1.175-.055-1.257.734a28.58 28.58 0 0 0-.101 1.275l-2.401-1.387c-1.278-.738-2.214.065-2.225 1.91-.018 2.626.948 7.096 3.14 11.163 1.51 2.804 3.403 5.025 5.537 6.517.693 2.231 1.25 4.624 1.43 7.413l-3.01-1.737-1.268.863v6.1l-.844 1.109 13.06 7.54-.844-2.083v-6.1l-1.267-2.327-3.01-1.738c.181-2.58.737-4.33 1.43-5.761 2.132.97 4.026.936 5.536-.123zm1.546-8.44c.014 2.115-.81 4.98-2.649 6.268-.984.691-2.137.86-3.44.512 1.464-2.372 3.042-4.411 3.109-9.59l2.349 1.357c.594.344.63 1.27.631 1.452zm-17.194-2.128c-1.84-3.413-2.663-7.228-2.65-9.329.002-.181.038-1.067.632-.723l2.349 1.356c.067 5.258 1.644 9.118 3.11 13.181-1.305-1.16-2.457-2.658-3.441-4.485z"/>
            <g fill="#FFF">
                <path d="M40.387 211.525l-11.182-6.455c-.235-.135-.426.006-.426.318v23.41c0 .312.191.674.426.81l11.182 6.455c1.175.68 2.13 2.493 2.13 4.051v-24.54c0-1.557-.955-3.37-2.13-4.049zM56.75 220.973l-11.18-6.456c-1.177-.678-2.13.034-2.13 1.592v24.538c0-1.558.953-2.27 2.13-1.59l11.18 6.454c.235.136.427-.007.427-.318v-23.41c0-.312-.192-.675-.427-.81z"/>
            </g>
            <g fill="#FFF">
                <path d="M101.698 270.276c.183-.413.693-1.745.693-3.715v-10.91a.513.513 0 0 0-.225-.404l-2.106-1.215c-.124-.073-.226-.01-.226.142v10.965c0 1.715.533 3.793.719 4.463a.515.515 0 0 0 .204.304l.74.428c.085.048.163.027.2-.058zM101.112 271.61c.144.084.232-.465.232-.465l.035-.446-.532-.308.032.493c-.001 0 .088.642.233.726zM98.81 249.962c.186.107.338.012.338-.215v-8.761c0-.423.168-.698.424-.79v12.493c0 .302.202.663.451.807l2.18 1.259c.25.143.451.016.451-.286v-12.526c0-1.106-.69-2.4-1.541-2.89-.557-.323-1.042-.215-1.313.205-.753-.288-1.329.163-1.329 1.115v8.983a.766.766 0 0 0 .338.606z"/>
                <path d="M106.925 247.399l-3.02-1.743v2.349l1.958 1.13v27.993l-16.485-9.517v-23.399l2.82 1.632c.535.31.969.035.97-.612l.004-3.424 4.065 2.347v-2.35l-4.504-2.6c-.233-.134-.457-.15-.622-.047l-4.414 2.798c-.165.104-.258.322-.258.604v25.215c0 .588.393 1.292.879 1.572l18.607 10.742c.485.28.878.031.878-.556V248.97c0-.587-.393-1.29-.878-1.572z"/>
            </g>
            <path fill="#FFF" d="M37.563 285.828c1.427-1.087 2.67-1.55.142-7.224-2.528-5.676-4.214-3.412-5.597-2.357-1.597 1.215-.084 10.056 5.794 21.326 5.88 11.268 11.827 16.727 13.422 15.511 1.382-1.054 3.8-1.917.653-7.122-3.147-5.204-4.026-4.047-5.454-2.959-.997.76-3.518-3.484-5.697-7.66-2.178-4.176-4.259-8.755-3.263-9.515z"/>
            <g fill="#FFF">
                <path d="M88.734 330.156l20.366 11.758c1.36.785 2.463-.108 2.463-1.997v-19.374c0-1.889-1.102-4.055-2.463-4.842l-20.366-11.758c-1.36-.785-2.463.109-2.463 1.998v19.373c-.001 1.888 1.102 4.056 2.463 4.842zm-.492-23.078c0-.377.22-.556.492-.399l20.366 11.758c.271.157.492.59.492.968v19.374c0 .377-.22.556-.492.4L88.734 327.42c-.271-.157-.492-.591-.492-.968v-19.375zM112.172 346.084l-26.515-15.308c-.547-.315-.99.043-.99.803 0 .759.443 1.63.99 1.946l26.515 15.308c.547.315.99-.043.99-.802 0-.76-.444-1.631-.99-1.947z"/>
                <path d="M98.916 331.49c.553.32 1-.043 1-.81s-.447-1.649-1-1.967c-.552-.32-1 .044-1 .81 0 .768.448 1.648 1 1.968z"/>
            </g>
            <g fill="#FFF">
                <path d="M105.903 81.55l.97.56v-2.283l-.97-.56zM107.272 82.34l.97.56v-3.474l-.97-.56zM108.641 83.13l.97.56V78.8l-.97-.56zM110.01 77.57v6.35l.97.56v-6.35z"/>
            </g>
            <path fill="#FFF" d="M122.84 87.591l-.442-.255v-.33c0-.38-.19-.797-.427-.933l-5.667-3.27c-.235-.137-.427.06-.427.44v3.129c0 .379.19.796.427.933l5.667 3.27c.236.136.427-.06.427-.44v-.33l.442.254v-2.468z"/>
            <g fill="#FFF">
                <path d="M19.12 33.108c-.323-.186-.6-.49-.83-.91a3.673 3.673 0 0 1-.427-1.381l.567.326c.044.268.129.512.256.733.126.22.273.38.441.476.285.163.505.087.662-.23.158-.318.236-.848.236-1.59l-.005-.003h-.002l-.002-.001c-.075.249-.202.409-.38.481-.18.073-.386.041-.617-.092-.346-.199-.632-.55-.862-1.054a3.805 3.805 0 0 1-.344-1.592c0-.59.125-1.007.375-1.246.25-.24.567-.25.951-.028.269.156.507.4.716.734.21.334.373.735.49 1.2a7.23 7.23 0 0 1 .224 1.872c0 .987-.128 1.684-.384 2.091-.255.404-.611.476-1.065.214zm.02-2.87c.223.128.408.12.555-.025.148-.145.222-.392.222-.74 0-.35-.074-.688-.224-1.014-.148-.327-.331-.553-.547-.678-.216-.125-.4-.112-.548.04-.15.153-.224.4-.224.744 0 .355.072.69.218 1.007.145.316.328.538.547.665zM21.74 30.407c-.07.07-.152.079-.25.022-.098-.056-.18-.16-.25-.309a1.104 1.104 0 0 1-.102-.462c0-.155.034-.27.103-.343.068-.073.151-.082.249-.025.098.055.18.16.25.313.068.153.103.307.103.462 0 .158-.035.272-.104.342zm0 3.134c-.07.072-.152.08-.25.023-.098-.056-.18-.16-.25-.311a1.116 1.116 0 0 1-.102-.464c0-.153.034-.266.103-.34.068-.073.151-.082.249-.025s.18.161.25.314c.068.152.103.305.103.458 0 .158-.035.273-.104.345zM24.199 35.93v-1.165l-1.817-1.05v-.8c.291-.726.806-1.74 1.543-3.043l.815.47v3.967l.498.287v.77l-.498-.288v1.165l-.541-.313zm-1.292-2.687v.02l1.296.749v-3.27l-.01-.006c-.6 1.06-1.03 1.896-1.286 2.507zM26.579 37.304v-4.992l-.013-.007-.95.548v-.9l.957-.55.556.32v5.9z"/>
            </g>
        </g>
    </g>
</svg>
